<mxfile host="app.diagrams.net" modified="2023-11-21T09:14:27.673Z" agent="Mozilla/5.0 (Windows NT 10.0; Win64; x64) AppleWebKit/537.36 (KHTML, like Gecko) Chrome/119.0.0.0 Safari/537.36 Edg/119.0.0.0" etag="PAJMsidSOsTnkFbb7ljt" version="22.1.3" type="github">
  <diagram name="第 1 页" id="DpUzbHpVL3DSfYZdSupo">
    <mxGraphModel dx="1514" dy="857" grid="1" gridSize="10" guides="1" tooltips="1" connect="1" arrows="1" fold="1" page="1" pageScale="1" pageWidth="827" pageHeight="1169" math="0" shadow="0">
      <root>
        <mxCell id="0" />
        <mxCell id="1" parent="0" />
        <mxCell id="an6K6NQJUsT61qSAPtYk-1" value="订单处理" style="whiteSpace=wrap;strokeWidth=2;" vertex="1" parent="1">
          <mxGeometry x="36" y="20" width="80" height="33" as="geometry" />
        </mxCell>
        <mxCell id="an6K6NQJUsT61qSAPtYk-2" value="库存管理" style="whiteSpace=wrap;strokeWidth=2;" vertex="1" parent="1">
          <mxGeometry x="35" y="122" width="81" height="33" as="geometry" />
        </mxCell>
        <mxCell id="an6K6NQJUsT61qSAPtYk-3" value="创建订单" style="whiteSpace=wrap;strokeWidth=2;" vertex="1" parent="1">
          <mxGeometry x="36" y="224" width="79" height="33" as="geometry" />
        </mxCell>
        <mxCell id="an6K6NQJUsT61qSAPtYk-4" value="支付处理" style="whiteSpace=wrap;strokeWidth=2;" vertex="1" parent="1">
          <mxGeometry x="35" y="325" width="81" height="33" as="geometry" />
        </mxCell>
        <mxCell id="an6K6NQJUsT61qSAPtYk-5" value="信用卡验证" style="whiteSpace=wrap;strokeWidth=2;" vertex="1" parent="1">
          <mxGeometry x="28" y="427" width="96" height="33" as="geometry" />
        </mxCell>
        <mxCell id="an6K6NQJUsT61qSAPtYk-6" value="更新订单状态" style="whiteSpace=wrap;strokeWidth=2;" vertex="1" parent="1">
          <mxGeometry x="20" y="529" width="111" height="33" as="geometry" />
        </mxCell>
        <mxCell id="an6K6NQJUsT61qSAPtYk-7" value="订单完成" style="whiteSpace=wrap;strokeWidth=2;" vertex="1" parent="1">
          <mxGeometry x="36" y="631" width="80" height="33" as="geometry" />
        </mxCell>
        <mxCell id="an6K6NQJUsT61qSAPtYk-8" value="检查库存" style="curved=1;startArrow=none;endArrow=block;exitX=0.49375;exitY=1.0121212583599668;entryX=0.5;entryY=-0.0060605713815400095;rounded=0;" edge="1" parent="1" source="an6K6NQJUsT61qSAPtYk-1" target="an6K6NQJUsT61qSAPtYk-2">
          <mxGeometry relative="1" as="geometry">
            <Array as="points" />
          </mxGeometry>
        </mxCell>
        <mxCell id="an6K6NQJUsT61qSAPtYk-9" value="库存确认" style="curved=1;startArrow=none;endArrow=block;exitX=0.5;exitY=1.0060606869784268;entryX=0.5;entryY=-0.012121142763080019;rounded=0;" edge="1" parent="1" source="an6K6NQJUsT61qSAPtYk-2" target="an6K6NQJUsT61qSAPtYk-3">
          <mxGeometry relative="1" as="geometry">
            <Array as="points" />
          </mxGeometry>
        </mxCell>
        <mxCell id="an6K6NQJUsT61qSAPtYk-10" value="请求支付" style="curved=1;startArrow=none;endArrow=block;exitX=0.5;exitY=1.0000001155968867;entryX=0.5;entryY=0.012121316158410275;rounded=0;" edge="1" parent="1" source="an6K6NQJUsT61qSAPtYk-3" target="an6K6NQJUsT61qSAPtYk-4">
          <mxGeometry relative="1" as="geometry">
            <Array as="points" />
          </mxGeometry>
        </mxCell>
        <mxCell id="an6K6NQJUsT61qSAPtYk-11" value="验证信用卡" style="curved=1;startArrow=none;endArrow=block;exitX=0.5;exitY=1.0242425745183772;entryX=0.4947916666666667;entryY=0.006060744776870265;rounded=0;" edge="1" parent="1" source="an6K6NQJUsT61qSAPtYk-4" target="an6K6NQJUsT61qSAPtYk-5">
          <mxGeometry relative="1" as="geometry">
            <Array as="points" />
          </mxGeometry>
        </mxCell>
        <mxCell id="an6K6NQJUsT61qSAPtYk-12" value="支付确认" style="curved=1;startArrow=none;endArrow=block;exitX=0.4947916666666667;exitY=1.0181820031368372;entryX=0.5;entryY=1.7339533025568182e-7;rounded=0;" edge="1" parent="1" source="an6K6NQJUsT61qSAPtYk-5" target="an6K6NQJUsT61qSAPtYk-6">
          <mxGeometry relative="1" as="geometry">
            <Array as="points" />
          </mxGeometry>
        </mxCell>
        <mxCell id="an6K6NQJUsT61qSAPtYk-13" value="通知客户" style="curved=1;startArrow=none;endArrow=block;exitX=0.5;exitY=1.0121214317552971;entryX=0.49375;entryY=-0.006060397986209754;rounded=0;" edge="1" parent="1" source="an6K6NQJUsT61qSAPtYk-6" target="an6K6NQJUsT61qSAPtYk-7">
          <mxGeometry relative="1" as="geometry">
            <Array as="points" />
          </mxGeometry>
        </mxCell>
      </root>
    </mxGraphModel>
  </diagram>
</mxfile>
